<svg id="Layer_1" data-name="Layer 1" xmlns="http://www.w3.org/2000/svg" xmlns:xlink="http://www.w3.org/1999/xlink" viewBox="0 0 240.94 255.12"><defs><style>.cls-1{fill:#fcea10;}.cls-2{fill:#008d36;}.cls-3{fill:#e30613;}.cls-4{fill:#491757;}.cls-5{fill:#f9b000;}.cls-6{fill:#004f91;}.cls-7{fill:#fef28c;}.cls-8{fill:#ffde00;}.cls-9{fill:#7db072;}.cls-10{fill:#d3d800;}.cls-11{fill:#f39200;}.cls-12{fill:#a1daf8;}.cls-13{fill:url(#linear-gradient);}.cls-14{fill:#ed694b;}.cls-15{fill:#b9d36c;}.cls-16{fill:url(#linear-gradient-2);}.cls-17{fill:#009fe3;}.cls-18{fill:#006ab5;}.cls-19{fill:url(#New_Gradient_Swatch_2);}.cls-20{fill:#ef82a6;}.cls-21{fill:url(#New_Gradient_Swatch_3);}.cls-22{fill:#95c11f;}.cls-23{fill:url(#linear-gradient-3);}.cls-24{fill:#00447e;}</style><linearGradient id="linear-gradient" x1="99.89" y1="123.82" x2="114.94" y2="104.52" gradientUnits="userSpaceOnUse"><stop offset="0" stop-color="#13a538"/><stop offset="0.1" stop-color="#2baa33"/><stop offset="0.29" stop-color="#51b22c"/><stop offset="0.47" stop-color="#6fb926"/><stop offset="0.66" stop-color="#84bd22"/><stop offset="0.83" stop-color="#91c020"/><stop offset="1" stop-color="#95c11f"/></linearGradient><linearGradient id="linear-gradient-2" x1="105.64" y1="132.81" x2="118.79" y2="154.38" gradientUnits="userSpaceOnUse"><stop offset="0" stop-color="#662483"/><stop offset="0.05" stop-color="#6e2f8a"/><stop offset="0.18" stop-color="#804999"/><stop offset="0.32" stop-color="#8e5ea4"/><stop offset="0.48" stop-color="#986cad"/><stop offset="0.68" stop-color="#9d74b2"/><stop offset="1" stop-color="#9f77b3"/></linearGradient><linearGradient id="New_Gradient_Swatch_2" x1="112.97" y1="109.77" x2="141.12" y2="109.77" gradientUnits="userSpaceOnUse"><stop offset="0" stop-color="#d60b52"/><stop offset="0.07" stop-color="#db195e"/><stop offset="0.21" stop-color="#e12b6e"/><stop offset="0.37" stop-color="#e63879"/><stop offset="0.58" stop-color="#e84080"/><stop offset="1" stop-color="#e94282"/></linearGradient><linearGradient id="New_Gradient_Swatch_3" x1="99.53" y1="123.88" x2="108.37" y2="136.9" gradientUnits="userSpaceOnUse"><stop offset="0" stop-color="#eb5d40"/><stop offset="0.2" stop-color="#e8533b"/><stop offset="0.53" stop-color="#e03a2c"/><stop offset="0.95" stop-color="#d41014"/><stop offset="1" stop-color="#d20a11"/></linearGradient><linearGradient id="linear-gradient-3" x1="129.92" y1="135" x2="133.41" y2="128.41" gradientUnits="userSpaceOnUse"><stop offset="0" stop-color="#009fe3"/><stop offset="1" stop-color="#0069b4"/></linearGradient></defs><polygon class="cls-1" points="112.97 93.19 143.84 102.82 138.31 69.67 112.97 93.19"/><polygon class="cls-2" points="87.23 76.59 91.06 108.53 112.97 93.19 87.23 76.59"/><polygon class="cls-3" points="91.06 108.53 69.32 125.22 95.22 140.74 91.06 108.53"/><polygon class="cls-4" points="95.22 140.74 96.37 162.79 116.36 154.78 95.22 140.74"/><polygon class="cls-5" points="143.84 102.82 172.63 110.81 147.53 134.88 143.84 102.82"/><polygon class="cls-6" points="147.53 134.88 153.34 157.12 129.27 150.17 147.53 134.88"/><polygon class="cls-7" points="143.84 102.82 146.67 95.05 138.31 69.67 143.84 102.82"/><polygon class="cls-8" points="143.84 102.82 172.63 110.81 146.67 95.05 143.84 102.82"/><polygon class="cls-9" points="112.97 93.19 116.74 85.36 87.23 76.59 112.97 93.19"/><polygon class="cls-10" points="138.31 69.67 116.74 85.36 112.97 93.19 138.31 69.67"/><polygon class="cls-11" points="150.94 131.61 153.34 157.12 147.53 134.88 150.94 131.61"/><polygon class="cls-12" points="143.84 102.82 141.12 111.59 147.53 134.88 143.84 102.82"/><polygon class="cls-13" points="112.97 93.19 86.45 116.63 116.95 126.35 112.97 93.19"/><polygon class="cls-14" points="91.06 108.53 90.73 105.78 69.32 125.22 91.06 108.53"/><polygon class="cls-15" points="112.97 93.19 91.06 108.53 86.45 116.63 112.97 93.19"/><polygon class="cls-16" points="95.22 140.74 120.49 157.53 116.95 126.35 95.22 140.74"/><polygon class="cls-17" points="147.53 134.88 116.95 126.35 120.49 157.53 147.53 134.88"/><polygon class="cls-18" points="141.12 111.59 116.95 126.35 147.53 134.88 141.12 111.59"/><polygon class="cls-19" points="112.97 93.19 116.95 126.35 141.12 111.59 112.97 93.19"/><polygon class="cls-20" points="141.12 111.59 143.84 102.82 112.97 93.19 141.12 111.59"/><polygon class="cls-21" points="116.95 126.35 86.45 116.63 95.22 140.74 116.95 126.35"/><polygon class="cls-15" points="116.74 85.36 119.87 79.73 113.86 84.5 116.74 85.36"/><polygon class="cls-22" points="119.87 79.73 123.37 80.53 116.74 85.36 119.87 79.73"/><polygon class="cls-23" points="116.95 126.35 137.2 143.53 147.53 134.88 116.95 126.35"/><polygon class="cls-24" points="147.53 134.88 136.24 152.18 129.27 150.17 147.53 134.88"/></svg>