<svg id="Layer_1" data-name="Layer 1" xmlns="http://www.w3.org/2000/svg" xmlns:xlink="http://www.w3.org/1999/xlink" viewBox="0 0 368.5 170.08"><defs><style>.cls-1{fill:#fcea10;}.cls-2{fill:#008d36;}.cls-3{fill:#e30613;}.cls-4{fill:#491757;}.cls-5{fill:#f9b000;}.cls-6{fill:#004f91;}.cls-7{fill:#fef28c;}.cls-8{fill:#ffde00;}.cls-9{fill:#7db072;}.cls-10{fill:#d3d800;}.cls-11{fill:#f39200;}.cls-12{fill:#a1daf8;}.cls-13{fill:url(#linear-gradient);}.cls-14{fill:#ed694b;}.cls-15{fill:#b9d36c;}.cls-16{fill:url(#linear-gradient-2);}.cls-17{fill:#009fe3;}.cls-18{fill:#006ab5;}.cls-19{fill:url(#New_Gradient_Swatch_2);}.cls-20{fill:#ef82a6;}.cls-21{fill:url(#New_Gradient_Swatch_3);}.cls-22{fill:#95c11f;}.cls-23{fill:url(#linear-gradient-3);}.cls-24{fill:#00447e;}.cls-25{fill:#1d1d1b;}</style><linearGradient id="linear-gradient" x1="256.42" y1="94.22" x2="273.42" y2="72.42" gradientUnits="userSpaceOnUse"><stop offset="0" stop-color="#13a538"/><stop offset="0.1" stop-color="#2baa33"/><stop offset="0.29" stop-color="#51b22c"/><stop offset="0.47" stop-color="#6fb926"/><stop offset="0.66" stop-color="#84bd22"/><stop offset="0.83" stop-color="#91c020"/><stop offset="1" stop-color="#95c11f"/></linearGradient><linearGradient id="linear-gradient-2" x1="262.91" y1="104.38" x2="277.77" y2="128.75" gradientUnits="userSpaceOnUse"><stop offset="0" stop-color="#662483"/><stop offset="0.05" stop-color="#6e2f8a"/><stop offset="0.18" stop-color="#804999"/><stop offset="0.32" stop-color="#8e5ea4"/><stop offset="0.48" stop-color="#986cad"/><stop offset="0.68" stop-color="#9d74b2"/><stop offset="1" stop-color="#9f77b3"/></linearGradient><linearGradient id="New_Gradient_Swatch_2" x1="271.2" y1="78.34" x2="303.01" y2="78.34" gradientUnits="userSpaceOnUse"><stop offset="0" stop-color="#d60b52"/><stop offset="0.07" stop-color="#db195e"/><stop offset="0.21" stop-color="#e12b6e"/><stop offset="0.37" stop-color="#e63879"/><stop offset="0.58" stop-color="#e84080"/><stop offset="1" stop-color="#e94282"/></linearGradient><linearGradient id="New_Gradient_Swatch_3" x1="256.02" y1="94.29" x2="265.99" y2="109" gradientUnits="userSpaceOnUse"><stop offset="0" stop-color="#eb5d40"/><stop offset="0.2" stop-color="#e8533b"/><stop offset="0.53" stop-color="#e03a2c"/><stop offset="0.95" stop-color="#d41014"/><stop offset="1" stop-color="#d20a11"/></linearGradient><linearGradient id="linear-gradient-3" x1="290.35" y1="106.86" x2="294.29" y2="99.41" gradientUnits="userSpaceOnUse"><stop offset="0" stop-color="#009fe3"/><stop offset="1" stop-color="#0069b4"/></linearGradient></defs><polygon class="cls-1" points="271.2 59.61 306.08 70.49 299.83 33.03 271.2 59.61"/><polygon class="cls-2" points="242.11 40.85 246.44 76.95 271.2 59.61 242.11 40.85"/><polygon class="cls-3" points="246.44 76.95 221.88 95.8 251.15 113.34 246.44 76.95"/><polygon class="cls-4" points="251.15 113.34 252.44 138.25 275.02 129.2 251.15 113.34"/><polygon class="cls-5" points="306.08 70.49 338.61 79.52 310.25 106.72 306.08 70.49"/><polygon class="cls-6" points="310.25 106.72 316.81 131.85 289.62 124 310.25 106.72"/><polygon class="cls-7" points="306.08 70.49 309.27 61.72 299.83 33.03 306.08 70.49"/><polygon class="cls-8" points="306.08 70.49 338.61 79.52 309.27 61.72 306.08 70.49"/><polygon class="cls-9" points="271.2 59.61 275.46 50.76 242.11 40.85 271.2 59.61"/><polygon class="cls-10" points="299.83 33.03 275.46 50.76 271.2 59.61 299.83 33.03"/><polygon class="cls-11" points="314.1 103.02 316.81 131.85 310.25 106.72 314.1 103.02"/><polygon class="cls-12" points="306.08 70.49 303.01 80.4 310.25 106.72 306.08 70.49"/><polygon class="cls-13" points="271.2 59.61 241.24 86.1 275.7 97.08 271.2 59.61"/><polygon class="cls-14" points="246.44 76.95 246.06 73.83 221.88 95.8 246.44 76.95"/><polygon class="cls-15" points="271.2 59.61 246.44 76.95 241.24 86.1 271.2 59.61"/><polygon class="cls-16" points="251.15 113.34 279.69 132.31 275.7 97.08 251.15 113.34"/><polygon class="cls-17" points="310.25 106.72 275.7 97.08 279.69 132.31 310.25 106.72"/><polygon class="cls-18" points="303.01 80.4 275.7 97.08 310.25 106.72 303.01 80.4"/><polygon class="cls-19" points="271.2 59.61 275.7 97.08 303.01 80.4 271.2 59.61"/><polygon class="cls-20" points="303.01 80.4 306.08 70.49 271.2 59.61 303.01 80.4"/><polygon class="cls-21" points="275.7 97.08 241.24 86.1 251.15 113.34 275.7 97.08"/><polygon class="cls-15" points="275.45 50.76 278.99 44.4 272.21 49.79 275.45 50.76"/><polygon class="cls-22" points="278.99 44.4 282.95 45.3 275.45 50.76 278.99 44.4"/><polygon class="cls-23" points="275.7 97.08 298.58 116.5 310.25 106.72 275.7 97.08"/><polygon class="cls-24" points="310.25 106.72 297.49 126.27 289.62 124 310.25 106.72"/><path class="cls-25" d="M201.9,69.91V71.4h-3.58a1.47,1.47,0,0,1-1.34-.71l-6.39-8.81a2,2,0,0,0-.64-.59,2.29,2.29,0,0,0-1-.18h-2.2v7.78l2,.39a.65.65,0,0,1,.52.63V71.4h-8.28V69.91a.65.65,0,0,1,.52-.63l2-.39V49.26l-2-.39a.65.65,0,0,1-.52-.64V46.75H190a15.51,15.51,0,0,1,4,.47,7.77,7.77,0,0,1,2.81,1.37,5.33,5.33,0,0,1,1.64,2.16,7.11,7.11,0,0,1,.54,2.83,7.22,7.22,0,0,1-.41,2.44,6.77,6.77,0,0,1-1.2,2,7.3,7.3,0,0,1-1.91,1.54,9.64,9.64,0,0,1-2.55,1,3.52,3.52,0,0,1,1.1,1l5.34,7.28,1.93.39A.65.65,0,0,1,201.9,69.91Zm-9.45-11.58a5.18,5.18,0,0,0,1.86-1,4.13,4.13,0,0,0,1.13-1.53,5.1,5.1,0,0,0,.38-2,3.92,3.92,0,0,0-1.46-3.32A7,7,0,0,0,190,49.38h-3.32v9.3h3.16A8.32,8.32,0,0,0,192.45,58.33Z"/><path class="cls-25" d="M233.35,64.16a11.51,11.51,0,0,1-2.48,4A10.82,10.82,0,0,1,227,70.73a13.8,13.8,0,0,1-9.91,0,10.82,10.82,0,0,1-3.84-2.59,11.66,11.66,0,0,1-2.48-4,15.27,15.27,0,0,1,0-10.16,11.71,11.71,0,0,1,2.48-4,11,11,0,0,1,3.84-2.61,13.67,13.67,0,0,1,9.91,0A11,11,0,0,1,230.87,50a11.56,11.56,0,0,1,2.48,4,15.1,15.1,0,0,1,0,10.16ZM230.19,55a8.7,8.7,0,0,0-1.76-3A7.58,7.58,0,0,0,225.68,50a10,10,0,0,0-7.21,0A7.8,7.8,0,0,0,215.71,52,8.55,8.55,0,0,0,214,55a13.7,13.7,0,0,0,0,8.15,8.51,8.51,0,0,0,1.76,3,7.65,7.65,0,0,0,2.76,1.91,10.18,10.18,0,0,0,7.21,0,7.44,7.44,0,0,0,2.75-1.91,8.66,8.66,0,0,0,1.76-3,13.7,13.7,0,0,0,0-8.15Z"/><path class="cls-25" d="M218.36,64.79a.7.7,0,0,0,.57-.29L226.36,54a.69.69,0,0,0-.16-1,.7.7,0,0,0-1,.16l-7.44,10.46a.69.69,0,0,0,.17,1A.66.66,0,0,0,218.36,64.79Z"/><path class="cls-25" d="M150.72,46.75H145v1.48a.58.58,0,0,0,.52.63l2.28.4V64.21a14,14,0,0,0,.09,1.68L133.6,47.31a1.62,1.62,0,0,0-.49-.45,1.54,1.54,0,0,0-.66-.11h-4.19v1.48a.58.58,0,0,0,.51.63l2,.4V68.88l-2,.4a.58.58,0,0,0-.51.63V71.4h5.41V68.89h0v-15c0-.48,0-1-.07-1.59l14.25,18.55a1.47,1.47,0,0,0,1.19.61h1.69V49.26l2-.4a.58.58,0,0,0,.53-.63V46.75Z"/><path d="M158.27,45.33a2.08,2.08,0,0,0,.52-.28l5.06-3.71h-3.46l-.48,0a1.29,1.29,0,0,0-.35.1,1.52,1.52,0,0,0-.3.17,3.34,3.34,0,0,0-.32.28l-3.62,3.49h2.37A1.83,1.83,0,0,0,158.27,45.33Z"/><path class="cls-25" d="M174.8,65.87h0L160.47,47.24a1.66,1.66,0,0,0-.49-.46,1.54,1.54,0,0,0-.66-.11h-4.21v1.48a.58.58,0,0,0,.51.64l2,.4V68.88l-2,.4a.57.57,0,0,0-.51.63V71.4h5.42V68.88h0V53.78c0-.49,0-1-.07-1.61l14.3,18.62a1.48,1.48,0,0,0,1.19.61h3.28l-1.59-1.9Z"/><path class="cls-25" d="M125.62,69.3l-2.08-.42h0V46.75h-5.81v1.48c0,.35.14.56.41.62l2,.4h0V68.88h0V71.4H126V69.91C126,69.56,125.9,69.35,125.62,69.3Z"/><path class="cls-25" d="M209.46,69.3l-2.08-.42h0V46.75h-5.81v1.48c0,.35.13.56.41.62l2,.4h0V68.88h0V71.4h5.83V69.91C209.87,69.56,209.74,69.35,209.46,69.3Z"/><path class="cls-25" d="M115,48.86a.58.58,0,0,0,.53-.63V46.75h-5a2.1,2.1,0,0,0-.69.08,1,1,0,0,0-.46.48l-8.34,15.16a13.7,13.7,0,0,0-.79,1.8,12.15,12.15,0,0,0-.78-1.78L91,47.31a1,1,0,0,0-.46-.48,2.38,2.38,0,0,0-.68-.08H84.91v1.48a.58.58,0,0,0,.51.63l2,.4V68.88l-2,.4a.58.58,0,0,0-.51.63V71.4H90.3V66.55h0V53.28a14.28,14.28,0,0,0-.11-1.66l8.64,15.46a1.33,1.33,0,0,0,1.2.77h.49a1.34,1.34,0,0,0,1.2-.77l8.44-15.41c0,.57-.07,1.11-.07,1.61v15.6h0V71.4h5.43V69.91a.58.58,0,0,0-.53-.63c-.19,0-.85-.18-2-.4V49.26Z"/><path class="cls-25" d="M80.38,49.47c.13,1.65.21,2.52.23,2.63a.67.67,0,0,0,.73.6H83v-6H67.79V71.4H83V65.65H81.34a.66.66,0,0,0-.73.59c0,.1-.09.91-.22,2.44H71.16V60.27h9.07V57.65H71.16V49.47Z"/><path class="cls-25" d="M65.74,63.91a7.43,7.43,0,0,1-2.14,5.51,8.34,8.34,0,0,1-6.11,2.25,18.57,18.57,0,0,1-3.38-.33,20.86,20.86,0,0,1-2.78-.65l-1-.34V64.17H52a.66.66,0,0,1,.71.59c0,.14.08.71.16,1.7S53,67.94,53,68a12.62,12.62,0,0,0,4.16.94,7.88,7.88,0,0,0,2.55-.33,4.42,4.42,0,0,0,1.58-.92,4.24,4.24,0,0,0,1.33-3.26,3.34,3.34,0,0,0-1.84-3,10.15,10.15,0,0,0-1.88-.83c-2.18-.67-3.62-1.17-4.34-1.49a7.1,7.1,0,0,1-1.89-1.21,5.84,5.84,0,0,1-1.84-4.59,6.36,6.36,0,0,1,2-4.7,7.53,7.53,0,0,1,5.5-2.08,18.5,18.5,0,0,1,6.9,1.41v5.66H63.54a.64.64,0,0,1-.7-.58c0-.07-.12-1.09-.28-3.06a15,15,0,0,0-4.06-.66,4.86,4.86,0,0,0-3.4,1.12,3.45,3.45,0,0,0-1.17,2.72A3.22,3.22,0,0,0,55.79,56a10,10,0,0,0,1.91.84c2.06.69,3.5,1.21,4.31,1.57A5.71,5.71,0,0,1,65.74,63.91Z"/><path class="cls-25" d="M46.16,94.42a8,8,0,0,1-1.78,2.79,8.48,8.48,0,0,1-6.32,2.44H29.89V98.58a.42.42,0,0,1,.37-.45l1.41-.29V83.73l-1.41-.28a.42.42,0,0,1-.37-.46V81.93h8.17a8.45,8.45,0,0,1,6.32,2.44,8.77,8.77,0,0,1,2.41,6.42A10,10,0,0,1,46.16,94.42Zm-2.27-6.54a6.22,6.22,0,0,0-1.26-2.18,5.89,5.89,0,0,0-4.57-1.83h-4V97.71h4a5.91,5.91,0,0,0,4.57-1.83,7.23,7.23,0,0,0,1.71-5.09A9.07,9.07,0,0,0,43.89,87.88Z"/><path class="cls-25" d="M57.7,83.88c.1,1.19.16,1.82.17,1.89a.49.49,0,0,0,.52.44h1.19V81.93H48.65V99.65H59.58V95.52H58.39a.48.48,0,0,0-.52.42c0,.07-.07.66-.16,1.75H51.07v-6H57.6V89.77H51.07V83.88Z"/><path class="cls-25" d="M123.4,79.82v4.92H122a.56.56,0,0,1-.61-.5c0-.12-.07-.56-.13-1.34s-.09-1.21-.1-1.32q-6.6-2.1-9.94,1.44A8.45,8.45,0,0,0,109,89.1a8.66,8.66,0,0,0,2.13,6.13,6.69,6.69,0,0,0,5.19,2.19,8.29,8.29,0,0,0,2.79-.35,8.09,8.09,0,0,0,2.61-1.56.72.72,0,0,1,.48-.22.59.59,0,0,1,.43.19l1.12,1.22a10.54,10.54,0,0,1-14.91.18,11,11,0,0,1-2.75-7.78,10.63,10.63,0,0,1,2.95-7.79,10.43,10.43,0,0,1,7.8-3A19.58,19.58,0,0,1,123.4,79.82Z"/><path class="cls-25" d="M208,93.45a10,10,0,0,1-2.12,3.41,9.56,9.56,0,0,1-3.29,2.22,11.8,11.8,0,0,1-8.49,0,9.52,9.52,0,0,1-3.28-2.22,10,10,0,0,1-2.13-3.41,13,13,0,0,1,0-8.7,10.15,10.15,0,0,1,2.13-3.42,9.54,9.54,0,0,1,3.28-2.23,11.8,11.8,0,0,1,8.49,0,9.59,9.59,0,0,1,3.29,2.23A10.13,10.13,0,0,1,208,84.75a13,13,0,0,1,0,8.7Zm-2.71-7.84a7.27,7.27,0,0,0-1.5-2.61,6.62,6.62,0,0,0-2.36-1.65,8.63,8.63,0,0,0-6.17,0A6.71,6.71,0,0,0,192.92,83a7.15,7.15,0,0,0-1.51,2.61,11.76,11.76,0,0,0,0,7,7.19,7.19,0,0,0,1.51,2.6,6.56,6.56,0,0,0,2.36,1.64,8.78,8.78,0,0,0,6.17,0,6.47,6.47,0,0,0,2.36-1.64,7.31,7.31,0,0,0,1.5-2.6,11.76,11.76,0,0,0,0-7Z"/><path class="cls-25" d="M201.69,94.46a.71.71,0,0,1-.57-.3l-6.64-9.34a.7.7,0,1,1,1.14-.8l6.63,9.34a.69.69,0,0,1-.16,1A.73.73,0,0,1,201.69,94.46Z"/><path class="cls-25" d="M95.37,78.54h-4.9v1.27a.49.49,0,0,0,.44.54l2,.34v12.8a12.39,12.39,0,0,0,.07,1.44L80.72,79a1.43,1.43,0,0,0-.42-.39,1.35,1.35,0,0,0-.57-.1H76.14v1.27a.49.49,0,0,0,.44.54c.18,0,.73.16,1.68.34V97.5l-1.68.34a.49.49,0,0,0-.44.54v1.27h4.63V97.5h0V84.61c0-.41,0-.87-.06-1.37L92.91,99.13a1.27,1.27,0,0,0,1,.52h1.44v-19l1.68-.34a.5.5,0,0,0,.46-.54V78.54Z"/><path class="cls-25" d="M150,94.92s0,0,0,0L137.78,79a1.78,1.78,0,0,0-.42-.39,1.35,1.35,0,0,0-.57-.09H133.2V79.8a.5.5,0,0,0,.44.55l1.68.34v16.8l-1.68.34a.5.5,0,0,0-.44.54v1.27h4.63V97.49h0V84.6c0-.41,0-.87-.06-1.37L150,99.13a1.28,1.28,0,0,0,1,.51h2.8L152.43,98Z"/><path d="M174.76,76a1,1,0,0,0-.77-.31,1.63,1.63,0,0,0-.74.19l-.82.42a9.17,9.17,0,0,1-.9.41,2.57,2.57,0,0,1-1,.2,2.44,2.44,0,0,1-1-.21,2.2,2.2,0,0,1-.77-.61,2.85,2.85,0,0,1-.47-.92A3.87,3.87,0,0,1,168.1,74h1.44a1.27,1.27,0,0,0,.29.84,1,1,0,0,0,.79.31,1.61,1.61,0,0,0,.73-.2c.26-.12.53-.26.81-.41a9.3,9.3,0,0,1,.9-.43,2.77,2.77,0,0,1,1-.19,2.51,2.51,0,0,1,1,.22,2.43,2.43,0,0,1,.78.61,2.59,2.59,0,0,1,.48.92,3.68,3.68,0,0,1,.17,1.17h-1.47A1.34,1.34,0,0,0,174.76,76Z"/><path class="cls-25" d="M186.58,94.92s0,0,0,0L174.35,79a1.78,1.78,0,0,0-.42-.39,1.35,1.35,0,0,0-.57-.09h-3.59V79.8a.5.5,0,0,0,.44.55l1.68.34v16.8l-1.68.34a.49.49,0,0,0-.44.54v1.27h4.63V97.49h0V84.6c0-.41,0-.87-.06-1.37l12.21,15.9a1.28,1.28,0,0,0,1,.51h2.8L189,98Z"/><path class="cls-25" d="M105.61,97.85l-1.78-.35v0h0V78.54h-5v1.27c0,.31.11.48.35.53l1.73.35h0V97.5h0v2.15h5V98.38C106,98.08,105.84,97.9,105.61,97.85Z"/><path class="cls-25" d="M74.44,97.85l-1.78-.35v0h0V78.54h-5v1.27c0,.31.12.48.35.53l1.73.35h0V97.5h0v2.15h5V98.38C74.79,98.08,74.68,97.9,74.44,97.85Z"/><path class="cls-25" d="M131.5,97.85l-1.78-.35v0h0V78.54h-5v1.27c0,.31.12.48.36.53l1.72.35h0V97.5h0v2.15h5V98.38C131.86,98.08,131.74,97.9,131.5,97.85Z"/><path class="cls-25" d="M168.44,79.82v4.92H167a.56.56,0,0,1-.61-.5c0-.12-.07-.56-.13-1.34s-.1-1.21-.11-1.32c-4.39-1.4-7.71-.92-9.93,1.44a8.44,8.44,0,0,0-2.15,6.08,8.66,8.66,0,0,0,2.12,6.13,6.69,6.69,0,0,0,5.19,2.19,8.29,8.29,0,0,0,2.79-.35,7.94,7.94,0,0,0,2.6-1.56.74.74,0,0,1,.49-.22.55.55,0,0,1,.42.19l1.13,1.22a10.54,10.54,0,0,1-14.91.18,11,11,0,0,1-2.75-7.78,10.66,10.66,0,0,1,2.94-7.79,10.47,10.47,0,0,1,7.81-3A19.53,19.53,0,0,1,168.44,79.82Z"/><rect x="157.42" y="100.55" width="8.26" height="1.87"/><path class="cls-25" d="M78.39,110v5.17h-1.5a.6.6,0,0,1-.64-.53c0-.12-.08-.59-.14-1.41S76,112,76,111.87q-6.93-2.2-10.45,1.52a8.89,8.89,0,0,0-2.26,6.4,9.11,9.11,0,0,0,2.23,6.44A7.05,7.05,0,0,0,71,128.54a7.52,7.52,0,0,0,5.68-2,.75.75,0,0,1,.51-.24.63.63,0,0,1,.45.21l1.18,1.28a10,10,0,0,1-8,3.35A10,10,0,0,1,63.12,128a11.57,11.57,0,0,1-2.9-8.18,11.2,11.2,0,0,1,3.1-8.2,11,11,0,0,1,8.21-3.16A20.47,20.47,0,0,1,78.39,110Z"/><path class="cls-25" d="M145.56,108.68v4.91h-1.5q-.54,0-.6-.33c0-.21-.13-.9-.26-2.06H138v17.42l.39.07,1.53.31c.22,0,.33.23.33.55v1.33h-7.48v-1.33a.56.56,0,0,1,.52-.59l1.71-.34V111.2h-5.24c-.14,1.17-.24,1.86-.28,2.07s-.24.32-.59.32h-1.5v-4.91h18.2Z"/><path class="cls-25" d="M197.77,110v5.17h-1.5a.59.59,0,0,1-.63-.53,11.74,11.74,0,0,1-.14-1.41c-.07-.82-.1-1.28-.11-1.39q-6.94-2.2-10.46,1.52a8.89,8.89,0,0,0-2.26,6.4,9.11,9.11,0,0,0,2.23,6.44,7.06,7.06,0,0,0,5.47,2.31,7.48,7.48,0,0,0,5.67-2,.75.75,0,0,1,.51-.24.61.61,0,0,1,.45.21l1.18,1.28a11.07,11.07,0,0,1-15.68.19,11.57,11.57,0,0,1-2.89-8.18,11.24,11.24,0,0,1,3.09-8.2,11,11,0,0,1,8.21-3.16A20.42,20.42,0,0,1,197.77,110Z"/><path class="cls-25" d="M123.77,108.68h-5.16V110a.53.53,0,0,0,.47.57l2.06.36v13.47a11.48,11.48,0,0,0,.08,1.51l-12.86-16.73a1.58,1.58,0,0,0-.44-.41,1.33,1.33,0,0,0-.6-.1h-3.78V110a.53.53,0,0,0,.47.57l1.76.36v17.68L104,129a.53.53,0,0,0-.47.57v1.33h4.87v-2.26h0V115.06c0-.44,0-.92-.07-1.44l12.85,16.72a1.3,1.3,0,0,0,1.06.54h1.52V110.94l1.77-.36A.53.53,0,0,0,126,110v-1.33Z"/><path class="cls-25" d="M217.27,125.91h0l-12.89-16.77a1.46,1.46,0,0,0-.44-.41,1.31,1.31,0,0,0-.59-.1h-3.79V110a.53.53,0,0,0,.46.58l1.77.36v17.71L200,129a.53.53,0,0,0-.46.58v1.33h4.88v-2.26h0V115c0-.44,0-.92-.06-1.45l12.87,16.76a1.33,1.33,0,0,0,1.07.54h2.95l-1.43-1.7Z"/><path class="cls-25" d="M179.83,129l-1.88-.37v0h0V108.68h-5.23V110c0,.32.12.51.37.56l1.81.36h0v17.68h0v2.26h5.25v-1.33C180.2,129.23,180.08,129,179.83,129Z"/><path d="M150.34,107.46a2.14,2.14,0,0,0,.46-.25l4.55-3.35h-3.11a2.54,2.54,0,0,0-.43,0,.94.94,0,0,0-.31.08,1.17,1.17,0,0,0-.27.15l-.29.25-3.27,3.14h2.14A1.64,1.64,0,0,0,150.34,107.46Z"/><path class="cls-25" d="M154,129l-1.88-.37v0h0V108.68h-5.23V110c0,.32.12.51.37.56l1.81.36h0v17.68h0v2.26h5.25v-1.33C154.39,129.23,154.27,129,154,129Z"/><path class="cls-25" d="M86.84,129,85,128.62v0h0V108.68H79.73V110c0,.32.12.51.37.56l1.81.36h0v17.68h0v2.26h5.25v-1.33C87.21,129.23,87.09,129,86.84,129Z"/><path class="cls-25" d="M99.89,111.13q.18,2.22.21,2.37a.61.61,0,0,0,.65.54h1.49v-5.36H88.55v22.2h13.69v-5.17h-1.49a.6.6,0,0,0-.65.52c0,.1-.09.83-.2,2.2H91.58v-7.57h8.18V118.5H91.58v-7.37Z"/><path class="cls-25" d="M157.17,108.68h-2.23V110a.52.52,0,0,0,.46.57l1.77.36v0h0v19.91h3v-9.54h8.43v-2.45h-8.42v-7.77H169q.18,2.23.21,2.37a.6.6,0,0,0,.64.55h1.5v-5.36Z"/></svg>